# xmcd CD database file
#
# Track frame offsets:
#	150
#	43763
#	76524
#	107404
#	146750
#	167577
#	200226
#	234069
#	265721
#
# Disc length: 3799 seconds
#
# Revision: 0
# Processed by: cddbd v1.5.1PL2 Copyright (c) Steve Scherf et al.
# Submitted via: CDex 1.51
#
DISCID=6a0ed509
DTITLE=Roberto Aymes - Aqüstrio
DYEAR=2001
DGENRE=Jazz
TTITLE0=Blue Monk
TTITLE1=Pra Elis e Luiz
TTITLE2=High Mess
TTITLE3=Monica Suite
TTITLE4=Drume Negrita
TTITLE5=Three Little Steps
TTITLE6=September
TTITLE7=Willa Weep For Me
TTITLE8=Recuerdos IV (Alegres)
EXTD=YEAR: 2001
EXTT0=
EXTT1=
EXTT2=
EXTT3=
EXTT4=
EXTT5=
EXTT6=
EXTT7=
EXTT8=
PLAYORDER=
